<svg xmlns="http://www.w3.org/2000/svg" viewBox="0 0 420 420" font-family="Arial,sans-serif">
  <rect width="420" height="420" fill="#fff" rx="8" stroke="#e0e0e0"/>
  <g stroke="#f0f0f0" stroke-width="1">
    <line x1="30" y1="70" x2="390" y2="70"/><line x1="30" y1="130" x2="390" y2="130"/>
    <line x1="30" y1="190" x2="390" y2="190"/><line x1="30" y1="250" x2="390" y2="250"/>
    <line x1="30" y1="310" x2="390" y2="310"/><line x1="30" y1="370" x2="390" y2="370"/>
    <line x1="90" y1="30" x2="90" y2="390"/><line x1="150" y1="30" x2="150" y2="390"/>
    <line x1="210" y1="30" x2="210" y2="390"/><line x1="270" y1="30" x2="270" y2="390"/>
    <line x1="330" y1="30" x2="330" y2="390"/><line x1="390" y1="30" x2="390" y2="390"/>
  </g>
  <line x1="20" y1="210" x2="400" y2="210" stroke="#333" stroke-width="2"/>
  <polygon points="402,210 393,205 393,215" fill="#333"/>
  <line x1="210" y1="400" x2="210" y2="20" stroke="#333" stroke-width="2"/>
  <polygon points="210,18 205,28 215,28" fill="#333"/>
  <text x="406" y="214" font-size="15" fill="#333">x</text>
  <text x="205" y="14" font-size="15" fill="#333">y</text>
  <text x="214" y="226" font-size="11" fill="#777">0</text>
  <text x="148" y="226" font-size="11" fill="#777" text-anchor="middle">-1</text>
  <text x="270" y="226" font-size="11" fill="#777" text-anchor="middle">1</text>
  <text x="330" y="226" font-size="11" fill="#777" text-anchor="middle">2</text>
  <text x="90" y="226" font-size="11" fill="#777" text-anchor="middle">-2</text>
  <text x="198" y="133" font-size="11" fill="#777" text-anchor="end">1</text>
  <text x="198" y="73" font-size="11" fill="#777" text-anchor="end">2</text>
  <text x="198" y="253" font-size="11" fill="#777" text-anchor="end">-1</text>
  <text x="198" y="313" font-size="11" fill="#777" text-anchor="end">-2</text>
  <circle cx="270" cy="130" r="5" fill="#e53935"/>
  <line x1="270" y1="210" x2="270" y2="130" stroke="#e53935" stroke-width="1.2" stroke-dasharray="5,3"/>
  <line x1="210" y1="130" x2="270" y2="130" stroke="#e53935" stroke-width="1.2" stroke-dasharray="5,3"/>
  <text x="278" y="126" font-size="12" fill="#e53935" font-weight="bold">A(1; 1)</text>
  <circle cx="90" cy="310" r="5" fill="#1565c0"/>
  <line x1="90" y1="210" x2="90" y2="310" stroke="#1565c0" stroke-width="1.2" stroke-dasharray="5,3"/>
  <line x1="210" y1="310" x2="90" y2="310" stroke="#1565c0" stroke-width="1.2" stroke-dasharray="5,3"/>
  <text x="98" y="324" font-size="12" fill="#1565c0" font-weight="bold">B(-2; -1)</text>
  <text x="210" y="413" font-size="12" fill="#555" text-anchor="middle">Декартова система координат</text>
</svg>
